<svg width="17" height="17" viewBox="0 0 17 17" fill="none" xmlns="http://www.w3.org/2000/svg">
<path d="M11.8223 0H5.01635C2.25032 0 0 2.25032 0 5.01635V11.8223C0 14.5883 2.25032 16.8387 5.01635 16.8387H11.8223C14.5883 16.8387 16.8387 14.5883 16.8387 11.8223V5.01635C16.8387 2.25032 14.5883 0 11.8223 0ZM15.1447 11.8223C15.1447 13.6572 13.6572 15.1447 11.8223 15.1447H5.01635C3.18146 15.1447 1.69397 13.6572 1.69397 11.8223V5.01635C1.69397 3.18146 3.18146 1.69397 5.01635 1.69397H11.8223C13.6572 1.69397 15.1447 3.18146 15.1447 5.01635V11.8223Z" fill="black"/>
<path d="M12.7819 5.14178C13.3582 5.14178 13.8255 4.67457 13.8255 4.09824C13.8255 3.5219 13.3582 3.05469 12.7819 3.05469C12.2056 3.05469 11.7383 3.5219 11.7383 4.09824C11.7383 4.67457 12.2056 5.14178 12.7819 5.14178Z" fill="black"/>
<path d="M8.42148 4.06445C6.02006 4.06445 4.06641 6.01811 4.06641 8.41953C4.06641 10.8209 6.02006 12.7746 8.42148 12.7746C10.8229 12.7746 12.7766 10.8209 12.7766 8.41953C12.7766 6.01811 10.8229 4.06445 8.42148 4.06445ZM8.42148 11.0806C6.9518 11.0806 5.76038 9.88921 5.76038 8.41953C5.76038 6.94985 6.9518 5.75842 8.42148 5.75842C9.89116 5.75842 11.0826 6.94985 11.0826 8.41953C11.0826 9.88921 9.89116 11.0806 8.42148 11.0806Z" fill="black"/>
</svg>
