<svg width="80" height="30" viewBox="0 0 80 30" fill="none" xmlns="http://www.w3.org/2000/svg">
<path d="M3.62822 12.2386V11.053C3.62822 10.8521 3.79406 10.6893 3.99869 10.6893H9.96831V12.6023H3.99869C3.79406 12.6023 3.62822 12.4395 3.62822 12.2386ZM11.2526 4.31235H0.894075V6.84865H9.59784C9.80247 6.84865 9.96831 7.01136 9.96831 7.21236V8.5337H2.34632C1.04971 8.5337 0 9.56659 0 10.8372V13.0266C0 14.2988 1.05053 15.3301 2.34632 15.3301H13.599V6.61581C13.599 5.34362 12.5485 4.31235 11.2526 4.31235Z" fill="black"/>
<path d="M34.7786 6.90616C34.7039 6.86317 34.5616 6.83999 34.3536 6.83999H27.7902V12.6027H34.3536C34.5634 12.6027 34.7039 12.5777 34.7786 12.5257C34.8535 12.4739 34.8918 12.3539 34.8918 12.1641V7.28043C34.8918 7.07459 34.8535 6.95091 34.7786 6.90616ZM27.7902 19.6406H24.1602V4.31132H34.6455C35.3313 4.31132 35.9224 4.35606 36.415 4.4438C36.9074 4.53169 37.3106 4.6963 37.6243 4.93809C37.9382 5.17988 38.1661 5.51836 38.3084 5.94985C38.4489 6.3834 38.52 6.93667 38.52 7.60996V12.0316C38.52 12.721 38.4489 13.2779 38.3084 13.7024C38.1661 14.1286 37.9382 14.4617 37.6243 14.7034C37.3106 14.9451 36.9074 15.1099 36.415 15.1977C35.9224 15.2853 35.3313 15.3302 34.6455 15.3302H27.7902V19.6406" fill="black"/>
<path d="M59.1795 7.28029C59.1795 7.07445 59.1413 6.95076 59.0664 6.90601C58.9917 6.86302 58.8494 6.83984 58.6415 6.83984H53.0394V15.3301H49.4111V4.31117H58.9316C59.6194 4.31117 60.2085 4.35592 60.7029 4.44366C61.1955 4.53154 61.5986 4.69616 61.9122 4.93795C62.2259 5.17974 62.454 5.51822 62.5945 5.94971C62.7368 6.38326 62.8079 6.93653 62.8079 7.60982V15.3301H59.1795V7.28029Z" fill="black"/>
<path d="M70.0286 12.2386V11.053C70.0286 10.8521 70.1944 10.6893 70.3991 10.6893H76.3688V12.6023H70.3991C70.1944 12.6023 70.0286 12.4395 70.0286 12.2386ZM77.653 4.31235H67.2944V6.84865H75.9981C76.2027 6.84865 76.3688 7.01136 76.3688 7.21236V8.5337H68.7468C67.45 8.5337 66.4004 9.56659 66.4004 10.8372V13.0266C66.4004 14.2988 67.4509 15.3301 68.7468 15.3301H79.9994V6.61581C79.9994 5.34362 78.9489 4.31235 77.653 4.31235" fill="black"/>
<path d="M20.5306 15.3301H16.9004V0.000620262H20.5306V15.3301Z" fill="black"/>
<path d="M45.7815 15.3301H42.1514V4.31117H45.7815V15.3301Z" fill="black"/>
<path d="M9.64105 30V26.6623C9.64105 26.3271 9.64338 25.9867 9.64886 25.6412C9.65388 25.2958 9.66672 24.9807 9.68763 24.6963H9.65663C9.61512 24.7572 9.553 24.8436 9.47028 24.9552C9.38732 25.0671 9.29404 25.1916 9.19088 25.3285C9.08725 25.4659 8.98111 25.6082 8.87248 25.7553C8.76383 25.9028 8.66295 26.0325 8.56984 26.1441L6.39638 28.8113H5.71328L3.57071 26.1745C3.47765 26.0629 3.37403 25.9332 3.2603 25.7858C3.14618 25.6387 3.0352 25.4939 2.92632 25.3514C2.81767 25.2094 2.71936 25.0799 2.6315 24.9629C2.5433 24.8461 2.47861 24.7572 2.43739 24.6963H2.40646C2.42683 24.9604 2.4399 25.2626 2.44521 25.6029C2.45023 25.9435 2.45292 26.2762 2.45292 26.6013V30H0V21.9831H2.68586L4.82825 24.6809C4.91098 24.7927 5.01186 24.9224 5.13101 25.0696C5.24982 25.2169 5.36623 25.3668 5.48035 25.5191C5.59402 25.6715 5.70547 25.8188 5.8141 25.9612C5.92281 26.1035 6.0081 26.2152 6.07022 26.2964H6.10133C6.16344 26.2052 6.24349 26.0932 6.34204 25.9612C6.44017 25.8293 6.54631 25.6894 6.6602 25.5421C6.77386 25.3949 6.88782 25.2449 7.00177 25.0925C7.11549 24.94 7.22414 24.8028 7.32771 24.6809L9.47028 21.9831H12.094V30H9.64105Z" fill="black"/>
<path d="M21.0207 24.3456L19.4527 26.8908H22.6197L21.0207 24.3456ZM24.4207 30L23.4736 28.3999H18.5988L17.6364 30H14.8418L19.9339 21.9831H22.2008L27.2927 30H24.4207" fill="black"/>
<path d="M37.5086 24.0559C37.5086 23.8835 37.4722 23.7767 37.4 23.7361C37.3273 23.6955 37.2187 23.675 37.0737 23.675H32.5561V25.7021H37.0737C37.2393 25.7021 37.3533 25.6792 37.4152 25.6334C37.4774 25.5878 37.5086 25.4836 37.5086 25.321V24.0559ZM37.4152 30L34.714 27.409H32.5561V30H30.041V21.9831H37.3223C37.8501 21.9831 38.2822 22.019 38.6184 22.0899C38.9549 22.1612 39.2186 22.2805 39.4105 22.448C39.6017 22.6157 39.7365 22.8342 39.8139 23.1034C39.8916 23.3728 39.9305 23.7108 39.9305 24.1169V25.321C39.9305 25.616 39.8967 25.8902 39.8294 26.1441C39.7622 26.3981 39.6432 26.6166 39.4724 26.7995C39.3016 26.9823 39.0713 27.127 38.7818 27.2338C38.4917 27.3403 38.1296 27.3939 37.695 27.3939L40.5825 30H37.4152" fill="black"/>
<path d="M50.9994 30L46.1401 26.8757V30H43.625V21.9831H46.1401V24.8639L50.7045 21.9831H54.3683L48.2515 25.8089L54.9428 30H50.9994" fill="black"/>
<path d="M57.6436 30V21.9831H67.0516V23.675H60.1585V25.123H64.816V26.6166H60.1585V28.2473H67.1293V30H57.6436" fill="black"/>
<path d="M73.5106 30V23.675H69.5361V21.9831H80.0001V23.675H76.0257V30H73.5106Z" fill="black"/>
</svg>
