<svg width="84" height="58" viewBox="0 0 84 58" fill="none" xmlns="http://www.w3.org/2000/svg">
<rect x="20.2812" y="9.75781" width="47.5334" height="36.517" fill="white"/>
<path d="M1.87979 49.0515C3.59361 54.9836 8.83648 56.069 9.18624 56.2772C17.8148 58.5709 66.1793 58.5777 74.9373 56.2772C80.9356 54.5843 82.0374 49.3928 82.2437 49.0515C84.5277 37.1941 84.6781 21.7357 82.1388 8.28097L82.2437 8.94995C80.5299 3.01783 75.287 1.93244 74.9373 1.72423C66.4242 -0.531882 17.9337 -0.617212 9.18624 1.72423C3.18789 3.42059 2.08615 8.60863 1.87979 8.94995C-0.565016 21.4115 -0.687432 35.7093 1.87979 49.0515V49.0515ZM33.6588 41.464V16.5716L55.5747 29.0366L33.6588 41.464Z" fill="#E53935"/>
</svg>
