<svg width="21" height="22" viewBox="0 0 21 22" fill="none" xmlns="http://www.w3.org/2000/svg">
<path d="M10.5 0.224609C12.8389 0.224712 14.7409 2.12683 14.7412 4.46582V5.42969H17.1523C17.6587 5.42991 18.0817 5.81675 18.127 6.32129L19.4043 20.5518H19.4033C19.4103 20.5989 19.4159 20.6471 19.416 20.6953L19.4102 20.7959C19.3632 21.2562 18.9976 21.6221 18.5371 21.6689L18.4365 21.6738H2.56348C2.28876 21.6738 2.02626 21.5583 1.84082 21.3555C1.65564 21.1528 1.56448 20.8819 1.58887 20.6084V20.6074L2.87109 6.32129C2.91638 5.81661 3.34011 5.42969 3.84668 5.42969H6.25781V4.46582C6.25808 2.12679 8.16105 0.224609 10.5 0.224609ZM3.63477 19.7168H17.3643L16.2578 7.3877H14.7422V8.50977C14.7422 9.05028 14.3034 9.48926 13.7627 9.48926C13.2222 9.48907 12.7842 9.05016 12.7842 8.50977V7.3877H8.21582V8.50977C8.21582 9.05017 7.77781 9.48908 7.2373 9.48926C6.69665 9.48926 6.25781 9.05028 6.25781 8.50977V7.3877H4.74121L3.63477 19.7168ZM10.5 2.18164C9.24088 2.18164 8.21608 3.20649 8.21582 4.46582V5.42969H12.7842V4.46582C12.7839 3.20653 11.7592 2.18169 10.5 2.18164Z" fill="black" stroke="white" stroke-width="0.45"/>
</svg>
