<svg width="15" height="18" viewBox="0 0 15 18" fill="none" xmlns="http://www.w3.org/2000/svg">
<path d="M14.8894 17.2481L13.7941 5.05022C13.7642 4.7171 13.485 4.46195 13.1506 4.46195H10.8918V3.44322C10.8918 1.54463 9.34728 0 7.44878 0C5.55036 0 4.00599 1.54463 4.00599 3.44322V4.46195H1.74569C1.41128 4.46195 1.13209 4.7171 1.1022 5.05022L0.00258333 17.2961C-0.0136115 17.4769 0.0468607 17.6559 0.16927 17.7898C0.291679 17.9237 0.46474 17.9999 0.646071 17.9999H14.2503C14.2508 17.9999 14.2515 17.9999 14.252 17.9999C14.6089 17.9999 14.8981 17.7106 14.8981 17.3538C14.898 17.3179 14.8951 17.2825 14.8894 17.2481ZM5.29813 3.44322C5.29813 2.25712 6.26293 1.29214 7.44886 1.29214C8.63488 1.29214 9.59977 2.25712 9.59977 3.44322V4.46195H5.29813V3.44322ZM1.35279 16.7079L2.33637 5.75409H4.00599V6.90944C4.00599 7.26624 4.29517 7.55551 4.65206 7.55551C5.00895 7.55551 5.29813 7.26624 5.29813 6.90944V5.75409H9.59977V6.90944C9.59977 7.26624 9.88895 7.55551 10.2458 7.55551C10.6027 7.55551 10.8919 7.26624 10.8919 6.90944V5.75409H12.56L13.5436 16.7079H1.35279V16.7079Z" fill="#079294"/>
</svg>
