<svg width="104" height="114" viewBox="0 0 104 114" fill="none" xmlns="http://www.w3.org/2000/svg">
<ellipse cx="38.5" cy="38.3103" rx="38.5" ry="38.3103" fill="#D2E6E6"/>
<ellipse cx="75" cy="85.5" rx="29" ry="28.5" fill="#E8F3F3"/>
<mask id="path-3-inside-1_84_34518" fill="white">
<path d="M70.9903 58.6893L75.2879 24.4789C75.3978 23.6039 75.3194 22.7156 75.058 21.873C74.7966 21.0304 74.3581 20.2527 73.7716 19.5916C73.1851 18.9305 72.464 18.4011 71.6562 18.0385C70.8484 17.6758 69.9723 17.4883 69.0861 17.4883H51.965C50.6936 17.4923 49.4535 17.8803 48.4086 18.6009C47.3636 19.3215 46.5631 20.3407 46.1129 21.5238L38.1468 42.662C37.6249 44.0336 36.6969 45.2152 35.4855 46.0506C34.274 46.886 32.8363 47.3358 31.3624 47.3405H23.5C22.5058 47.3416 21.5526 47.7351 20.8496 48.4347C20.1466 49.1342 19.7511 50.0827 19.75 51.072V58.5351C19.75 58.6984 19.7823 58.8602 19.8451 59.0111C19.908 59.162 20 59.2991 20.1161 59.4146C20.2322 59.5301 20.37 59.6217 20.5216 59.6842C20.6733 59.7468 20.8358 59.7789 21 59.7789H24.543L20.1035 88.4937C19.979 89.2986 20.173 90.1201 20.6446 90.7856C21.1162 91.4511 21.8288 91.9088 22.6324 92.0623C23.4361 92.2159 24.2683 92.0535 24.9541 91.6092C25.64 91.1649 26.126 90.4733 26.31 89.6798L33.2444 59.7789H37.9768L33.5372 88.4937C33.4128 89.2986 33.6067 90.1201 34.0783 90.7857C34.55 91.4512 35.2625 91.9088 36.0662 92.0624C36.8699 92.216 37.7021 92.0536 38.3879 91.6092C39.0738 91.1649 39.5597 90.4733 39.7438 89.6798L46.6781 59.7789H51.5719L58.5063 89.6798C58.6903 90.4733 59.1762 91.1649 59.8621 91.6092C60.5479 92.0535 61.3801 92.216 62.1837 92.0624C62.9874 91.9088 63.7 91.4512 64.1716 90.7857C64.6432 90.1202 64.8372 89.2987 64.7128 88.4938L60.2732 59.7789H61.5719L68.5063 89.6798C68.6903 90.4733 69.1762 91.1649 69.8621 91.6092C70.5479 92.0535 71.3801 92.216 72.1837 92.0624C72.9874 91.9088 73.7 91.4512 74.1716 90.7857C74.6432 90.1202 74.8372 89.2987 74.7128 88.4938L70.2565 59.6711C70.4536 59.5843 70.6247 59.4483 70.7533 59.2763C70.8818 59.1043 70.9635 58.9021 70.9903 58.6893V58.6893ZM28.5 49.8282H31.3624C33.3448 49.8219 35.2786 49.2169 36.908 48.0933C38.5374 46.9697 39.7857 45.3803 40.4877 43.5355L48.4538 22.3973C48.7239 21.6874 49.2042 21.0759 49.8311 20.6435C50.4581 20.2112 51.2022 19.9784 51.965 19.976H69.0861C69.6178 19.976 70.1435 20.0885 70.6281 20.3061C71.1128 20.5236 71.5455 20.8413 71.8974 21.238C72.2493 21.6346 72.5124 22.1012 72.6692 22.6067C72.8261 23.1123 72.8731 23.6453 72.8072 24.1703V24.1703L70.6899 41.0246C70.5059 42.4703 69.8869 43.8269 68.9141 44.9162C67.9414 46.0055 66.6603 46.7766 65.2391 47.1283C66.8577 45.5903 67.8931 43.5435 68.1705 41.3336L69.7403 28.8371L67.2597 28.5286L65.6899 41.0251C65.4685 42.7679 64.6162 44.3706 63.2927 45.5331C61.9693 46.6956 60.2653 47.3382 58.5 47.3405C57.5058 47.3416 56.5526 47.7351 55.8496 48.4347C55.1466 49.1342 54.7511 50.0827 54.75 51.072V52.5298C54.3487 52.3881 53.9259 52.3157 53.5 52.3159H28.5C28.0741 52.3157 27.6513 52.3881 27.25 52.5298V51.072C27.2504 50.7423 27.3822 50.4261 27.6165 50.1929C27.8509 49.9597 28.1686 49.8286 28.5 49.8282V49.8282ZM62.25 57.2912V51.072C62.2504 50.7423 62.3822 50.4261 62.6165 50.1929C62.8509 49.9597 63.1686 49.8286 63.5 49.8282C65.8462 49.8279 68.1132 48.9834 69.8827 47.4503L68.6465 57.2912H62.25ZM59.9642 49.8282C59.8221 50.2276 59.7496 50.6483 59.75 51.072V57.2912H57.25V51.072C57.2504 50.7423 57.3822 50.4261 57.6165 50.1929C57.8509 49.9597 58.1686 49.8286 58.5 49.8282H59.9642ZM54.75 57.2912H27.25V56.0474C27.2504 55.7176 27.3822 55.4015 27.6165 55.1683C27.8509 54.9351 28.1686 54.8039 28.5 54.8036H53.5C53.8314 54.8039 54.1491 54.9351 54.3835 55.1683C54.6178 55.4015 54.7496 55.7176 54.75 56.0474V57.2912ZM22.25 51.072C22.2504 50.7423 22.3822 50.4261 22.6165 50.1929C22.8509 49.9597 23.1686 49.8286 23.5 49.8282H24.9642C24.8221 50.2276 24.7496 50.6483 24.75 51.072V57.2912H22.25V51.072ZM23.8741 89.1204C23.8355 89.2866 23.7338 89.4314 23.5901 89.5245C23.4465 89.6175 23.2722 89.6515 23.1039 89.6194C22.9357 89.5872 22.7864 89.4914 22.6877 89.352C22.5889 89.2126 22.5483 89.0406 22.5744 88.872L27.0723 59.7789H30.6787L23.8741 89.1204ZM37.3078 89.1204C37.2693 89.2866 37.1675 89.4314 37.0239 89.5245C36.8803 89.6175 36.706 89.6515 36.5377 89.6194C36.3694 89.5872 36.2202 89.4914 36.1214 89.352C36.0227 89.2126 35.9821 89.0406 36.0082 88.872L40.5061 59.7789H44.1125L37.3078 89.1204ZM62.2419 88.8721C62.2679 89.0406 62.2273 89.2127 62.1285 89.352C62.0297 89.4913 61.8805 89.5871 61.7123 89.6193C61.544 89.6515 61.3697 89.6174 61.2261 89.5244C61.0825 89.4314 60.9807 89.2866 60.9422 89.1204L54.1375 59.7789H57.7439L62.2419 88.8721ZM72.09 89.4013C72.0102 89.4938 71.9063 89.5624 71.7896 89.5997C71.673 89.6369 71.5483 89.6412 71.4293 89.6121C71.3104 89.583 71.2018 89.5216 71.1158 89.4348C71.0298 89.348 70.9697 89.2392 70.9422 89.1204L64.1375 59.7789H67.7439L72.2419 88.8721C72.2569 88.966 72.2511 89.062 72.2249 89.1534C72.1986 89.2448 72.1526 89.3294 72.09 89.4013H72.09Z"/>
</mask>
<path d="M70.9903 58.6893L75.2879 24.4789C75.3978 23.6039 75.3194 22.7156 75.058 21.873C74.7966 21.0304 74.3581 20.2527 73.7716 19.5916C73.1851 18.9305 72.464 18.4011 71.6562 18.0385C70.8484 17.6758 69.9723 17.4883 69.0861 17.4883H51.965C50.6936 17.4923 49.4535 17.8803 48.4086 18.6009C47.3636 19.3215 46.5631 20.3407 46.1129 21.5238L38.1468 42.662C37.6249 44.0336 36.6969 45.2152 35.4855 46.0506C34.274 46.886 32.8363 47.3358 31.3624 47.3405H23.5C22.5058 47.3416 21.5526 47.7351 20.8496 48.4347C20.1466 49.1342 19.7511 50.0827 19.75 51.072V58.5351C19.75 58.6984 19.7823 58.8602 19.8451 59.0111C19.908 59.162 20 59.2991 20.1161 59.4146C20.2322 59.5301 20.37 59.6217 20.5216 59.6842C20.6733 59.7468 20.8358 59.7789 21 59.7789H24.543L20.1035 88.4937C19.979 89.2986 20.173 90.1201 20.6446 90.7856C21.1162 91.4511 21.8288 91.9088 22.6324 92.0623C23.4361 92.2159 24.2683 92.0535 24.9541 91.6092C25.64 91.1649 26.126 90.4733 26.31 89.6798L33.2444 59.7789H37.9768L33.5372 88.4937C33.4128 89.2986 33.6067 90.1201 34.0783 90.7857C34.55 91.4512 35.2625 91.9088 36.0662 92.0624C36.8699 92.216 37.7021 92.0536 38.3879 91.6092C39.0738 91.1649 39.5597 90.4733 39.7438 89.6798L46.6781 59.7789H51.5719L58.5063 89.6798C58.6903 90.4733 59.1762 91.1649 59.8621 91.6092C60.5479 92.0535 61.3801 92.216 62.1837 92.0624C62.9874 91.9088 63.7 91.4512 64.1716 90.7857C64.6432 90.1202 64.8372 89.2987 64.7128 88.4938L60.2732 59.7789H61.5719L68.5063 89.6798C68.6903 90.4733 69.1762 91.1649 69.8621 91.6092C70.5479 92.0535 71.3801 92.216 72.1837 92.0624C72.9874 91.9088 73.7 91.4512 74.1716 90.7857C74.6432 90.1202 74.8372 89.2987 74.7128 88.4938L70.2565 59.6711C70.4536 59.5843 70.6247 59.4483 70.7533 59.2763C70.8818 59.1043 70.9635 58.9021 70.9903 58.6893V58.6893ZM28.5 49.8282H31.3624C33.3448 49.8219 35.2786 49.2169 36.908 48.0933C38.5374 46.9697 39.7857 45.3803 40.4877 43.5355L48.4538 22.3973C48.7239 21.6874 49.2042 21.0759 49.8311 20.6435C50.4581 20.2112 51.2022 19.9784 51.965 19.976H69.0861C69.6178 19.976 70.1435 20.0885 70.6281 20.3061C71.1128 20.5236 71.5455 20.8413 71.8974 21.238C72.2493 21.6346 72.5124 22.1012 72.6692 22.6067C72.8261 23.1123 72.8731 23.6453 72.8072 24.1703V24.1703L70.6899 41.0246C70.5059 42.4703 69.8869 43.8269 68.9141 44.9162C67.9414 46.0055 66.6603 46.7766 65.2391 47.1283C66.8577 45.5903 67.8931 43.5435 68.1705 41.3336L69.7403 28.8371L67.2597 28.5286L65.6899 41.0251C65.4685 42.7679 64.6162 44.3706 63.2927 45.5331C61.9693 46.6956 60.2653 47.3382 58.5 47.3405C57.5058 47.3416 56.5526 47.7351 55.8496 48.4347C55.1466 49.1342 54.7511 50.0827 54.75 51.072V52.5298C54.3487 52.3881 53.9259 52.3157 53.5 52.3159H28.5C28.0741 52.3157 27.6513 52.3881 27.25 52.5298V51.072C27.2504 50.7423 27.3822 50.4261 27.6165 50.1929C27.8509 49.9597 28.1686 49.8286 28.5 49.8282V49.8282ZM62.25 57.2912V51.072C62.2504 50.7423 62.3822 50.4261 62.6165 50.1929C62.8509 49.9597 63.1686 49.8286 63.5 49.8282C65.8462 49.8279 68.1132 48.9834 69.8827 47.4503L68.6465 57.2912H62.25ZM59.9642 49.8282C59.8221 50.2276 59.7496 50.6483 59.75 51.072V57.2912H57.25V51.072C57.2504 50.7423 57.3822 50.4261 57.6165 50.1929C57.8509 49.9597 58.1686 49.8286 58.5 49.8282H59.9642ZM54.75 57.2912H27.25V56.0474C27.2504 55.7176 27.3822 55.4015 27.6165 55.1683C27.8509 54.9351 28.1686 54.8039 28.5 54.8036H53.5C53.8314 54.8039 54.1491 54.9351 54.3835 55.1683C54.6178 55.4015 54.7496 55.7176 54.75 56.0474V57.2912ZM22.25 51.072C22.2504 50.7423 22.3822 50.4261 22.6165 50.1929C22.8509 49.9597 23.1686 49.8286 23.5 49.8282H24.9642C24.8221 50.2276 24.7496 50.6483 24.75 51.072V57.2912H22.25V51.072ZM23.8741 89.1204C23.8355 89.2866 23.7338 89.4314 23.5901 89.5245C23.4465 89.6175 23.2722 89.6515 23.1039 89.6194C22.9357 89.5872 22.7864 89.4914 22.6877 89.352C22.5889 89.2126 22.5483 89.0406 22.5744 88.872L27.0723 59.7789H30.6787L23.8741 89.1204ZM37.3078 89.1204C37.2693 89.2866 37.1675 89.4314 37.0239 89.5245C36.8803 89.6175 36.706 89.6515 36.5377 89.6194C36.3694 89.5872 36.2202 89.4914 36.1214 89.352C36.0227 89.2126 35.9821 89.0406 36.0082 88.872L40.5061 59.7789H44.1125L37.3078 89.1204ZM62.2419 88.8721C62.2679 89.0406 62.2273 89.2127 62.1285 89.352C62.0297 89.4913 61.8805 89.5871 61.7123 89.6193C61.544 89.6515 61.3697 89.6174 61.2261 89.5244C61.0825 89.4314 60.9807 89.2866 60.9422 89.1204L54.1375 59.7789H57.7439L62.2419 88.8721ZM72.09 89.4013C72.0102 89.4938 71.9063 89.5624 71.7896 89.5997C71.673 89.6369 71.5483 89.6412 71.4293 89.6121C71.3104 89.583 71.2018 89.5216 71.1158 89.4348C71.0298 89.348 70.9697 89.2392 70.9422 89.1204L64.1375 59.7789H67.7439L72.2419 88.8721C72.2569 88.966 72.2511 89.062 72.2249 89.1534C72.1986 89.2448 72.1526 89.3294 72.09 89.4013H72.09Z" fill="#079294" stroke="#F6F6F6" mask="url(#path-3-inside-1_84_34518)"/>
</svg>
