<svg width="20" height="17" viewBox="0 0 20 17" fill="none" xmlns="http://www.w3.org/2000/svg">
<path d="M18.4246 1.54305C17.442 0.548008 16.0871 0 14.6094 0C12.5414 0 10.9477 0.995508 10 2.87934C9.05234 0.995508 7.45863 0 5.39062 0C3.91293 0 2.55801 0.548008 1.57539 1.54309C0.544766 2.5868 0 4.01551 0 5.67477C0 7.66504 1.26469 9.85469 3.75891 12.1828C6.02039 14.2937 8.49887 15.7752 8.97277 16.0507C9.17023 16.1655 9.60973 16.419 9.60973 16.419L10.0001 16.6441L10.3905 16.4189C10.3905 16.4189 10.8296 16.1655 11.027 16.0507C11.5009 15.7751 13.9795 14.2936 16.2409 12.1828C18.7352 9.85469 20 7.66504 20 5.67477C20 4.01551 19.4552 2.5868 18.4246 1.54305ZM15.1748 11.0406C13.0357 13.0371 10.69 14.4392 10.2415 14.7C10.1784 14.7367 10.0903 14.7877 9.99988 14.84C9.90945 14.7877 9.82129 14.7367 9.75816 14.7C9.30969 14.4392 6.96414 13.0372 4.82508 11.0406C2.6907 9.04832 1.5625 7.19285 1.5625 5.67477C1.5625 3.25352 3.13668 1.5625 5.39062 1.5625C6.85687 1.5625 7.90246 2.21191 8.58703 3.54789C9.13641 4.6198 9.21969 5.73113 9.22047 5.74223L9.25047 5.74019H10.7796C10.7803 5.72949 10.8637 4.6418 11.3936 3.58594C12.0675 2.24328 13.1495 1.5625 14.6094 1.5625C16.8633 1.5625 18.4375 3.25352 18.4375 5.67477C18.4375 7.19285 17.3093 9.04832 15.1748 11.0406Z" fill="black"/>
</svg>
