<svg width="20" height="17" viewBox="0 0 20 17" fill="none" xmlns="http://www.w3.org/2000/svg">
<path d="M14.6094 0.150391C16.0495 0.150391 17.3657 0.683688 18.3184 1.64844C19.3174 2.66033 19.8496 4.0495 19.8496 5.6748C19.8496 7.60196 18.6231 9.75439 16.1387 12.0732C13.8894 14.1726 11.4216 15.6474 10.9512 15.9209C10.8527 15.9782 10.6939 16.0698 10.5596 16.1475C10.4924 16.1863 10.431 16.2225 10.3867 16.248C10.3648 16.2607 10.3472 16.2712 10.335 16.2783C10.3288 16.2819 10.3236 16.2843 10.3203 16.2861C10.3188 16.287 10.3172 16.2876 10.3164 16.2881L10.3154 16.2891L10 16.4707L9.68457 16.2891L9.68359 16.2881C9.68276 16.2876 9.68132 16.2871 9.67969 16.2861C9.67642 16.2843 9.67123 16.2819 9.66504 16.2783C9.65272 16.2712 9.63516 16.2607 9.61328 16.248C9.56906 16.2225 9.50758 16.1872 9.44043 16.1484C9.30586 16.0707 9.14637 15.9782 9.04785 15.9209C8.5767 15.6469 6.11014 14.1723 3.86133 12.0732C1.37703 9.75434 0.150407 7.60197 0.150391 5.6748C0.150391 4.04949 0.682597 2.66029 1.68164 1.64844C2.63435 0.68365 3.95051 0.150391 5.39062 0.150391C7.40044 0.150391 8.94338 1.11201 9.86621 2.94629L10 3.21289L10.1338 2.94629C11.0566 1.11201 12.5996 0.150391 14.6094 0.150391ZM14.6094 1.41211C13.8555 1.41211 13.1914 1.58828 12.627 1.94336C12.0628 2.29837 11.6067 2.82727 11.2598 3.51855C10.8284 4.37789 10.6865 5.25561 10.6455 5.58984H9.35449C9.31299 5.24994 9.16842 4.3531 8.7207 3.47949C8.36865 2.79245 7.91909 2.27324 7.36133 1.92676C6.80327 1.58014 6.14654 1.41211 5.39062 1.41211C4.22436 1.41211 3.22671 1.85083 2.52148 2.6084C1.81699 3.36518 1.41211 4.4315 1.41211 5.6748C1.41213 7.25945 2.58299 9.15319 4.72266 11.1504C6.87387 13.1583 9.23062 14.5673 9.68262 14.8301C9.7459 14.8669 9.83441 14.9175 9.9248 14.9697L10 15.0137L10.0752 14.9697C10.1655 14.9175 10.2541 14.8669 10.3174 14.8301C10.7698 14.567 13.1264 13.158 15.2773 11.1504C17.4171 9.1532 18.5879 7.25944 18.5879 5.6748C18.5879 4.4315 18.183 3.36518 17.4785 2.6084C16.7733 1.85083 15.7756 1.41211 14.6094 1.41211Z" fill="#079294" stroke="#079294" stroke-width="0.3"/>
</svg>
