<svg width="18" height="18" viewBox="0 0 18 18" fill="none" xmlns="http://www.w3.org/2000/svg">
<path d="M0.104492 8.71582C0.342451 1.13362 9.51027 -2.69607 15.0596 2.4707L15.3252 2.72754C20.87 8.35402 16.866 17.9074 8.95703 17.9004C7.55583 17.9004 6.21877 17.5864 4.98242 16.9668C3.74824 16.3483 2.2548 16.5977 1.2666 17.5859L1.12988 17.7236C1.0146 17.8389 0.860032 17.9003 0.703125 17.9004C0.625582 17.9004 0.547209 17.8853 0.472656 17.8545C0.247324 17.7611 0.0996094 17.5408 0.0996094 17.2969L0.100586 9.08594L0.104492 8.71582ZM14.4678 3.57617C9.60373 -1.29147 1.27167 2.19471 1.30664 9.07617V16.0371L1.4541 15.958C2.10559 15.6057 2.83001 15.4239 3.55957 15.4238C4.22703 15.4238 4.89839 15.5759 5.52246 15.8887C6.59162 16.4246 7.75089 16.6954 8.96484 16.6943C15.7733 16.7043 19.264 8.38823 14.4678 3.57617ZM6.0127 8.22266C6.44196 8.22354 6.78988 8.57154 6.79004 9.00098C6.79004 9.43055 6.44206 9.77841 6.0127 9.7793C4.97824 9.73597 4.97838 8.26579 6.0127 8.22266ZM9.03418 8.22266C9.46419 8.22266 9.81234 8.571 9.8125 9.00098H9.81348C9.76918 10.0336 8.29934 10.0337 8.25488 9.00098C8.25505 8.57099 8.60416 8.22266 9.03418 8.22266ZM12.0576 8.22266C12.4875 8.22284 12.8358 8.57111 12.8359 9.00098C12.7916 10.0335 11.3228 10.0337 11.2783 9.00098C11.2785 8.57099 11.6276 8.22266 12.0576 8.22266Z" fill="#079294" stroke="#079294" stroke-width="0.2"/>
</svg>
