<svg width="12" height="12" viewBox="0 0 12 12" fill="none" xmlns="http://www.w3.org/2000/svg">
<path fill-rule="evenodd" clip-rule="evenodd" d="M8.30072 7.30347H7.77354L7.59029 7.12154C8.23765 6.36663 8.63137 5.38797 8.63137 4.31568C8.63137 1.9321 6.69927 0 4.31568 0C1.9321 0 0 1.9321 0 4.31568C0 6.69927 1.9321 8.63137 4.31568 8.63137C5.38797 8.63137 6.36597 8.23831 7.12088 7.59162L7.30413 7.77354V8.29939L10.6226 11.6132L11.6125 10.6232L8.30072 7.30347V7.30347Z" fill="black"/>
<path fill-rule="evenodd" clip-rule="evenodd" d="M4.31688 7.30369C2.6663 7.30369 1.3291 5.96649 1.3291 4.31591C1.3291 2.66599 2.6663 1.32812 4.31688 1.32812C5.9668 1.32812 7.30466 2.66599 7.30466 4.31591C7.30466 5.96649 5.9668 7.30369 4.31688 7.30369V7.30369Z" fill="#F6F6F6"/>
</svg>
